<?xml version="1.0" encoding="UTF-8" standalone="no"?>
<svg
   xmlns:dc="http://purl.org/dc/elements/1.1/"
   xmlns:cc="http://creativecommons.org/ns#"
   xmlns:rdf="http://www.w3.org/1999/02/22-rdf-syntax-ns#"
   xmlns:svg="http://www.w3.org/2000/svg"
   xmlns="http://www.w3.org/2000/svg"
   xmlns:sodipodi="http://sodipodi.sourceforge.net/DTD/sodipodi-0.dtd"
   xmlns:inkscape="http://www.inkscape.org/namespaces/inkscape"
   width="56"
   height="92"
   viewBox="0 0 56 92"
   class="feather feather-package"
   version="1.1"
   id="svg10"
   sodipodi:docname="y.svg"
   style="fill:none;stroke:currentColor;stroke-width:2;stroke-linecap:round;stroke-linejoin:round"
   inkscape:version="0.92.2 5c3e80d, 2017-08-06">
  <metadata
     id="metadata16">
    <rdf:RDF>
      <cc:Work
         rdf:about="">
        <dc:format>image/svg+xml</dc:format>
        <dc:type
           rdf:resource="http://purl.org/dc/dcmitype/StillImage" />
        <dc:title></dc:title>
      </cc:Work>
    </rdf:RDF>
  </metadata>
  <defs
     id="defs14" />
  <sodipodi:namedview
     pagecolor="#ffffff"
     bordercolor="#666666"
     borderopacity="1"
     objecttolerance="10"
     gridtolerance="10"
     guidetolerance="10"
     inkscape:pageopacity="0"
     inkscape:pageshadow="2"
     inkscape:window-width="1469"
     inkscape:window-height="917"
     id="namedview12"
     showgrid="false"
     inkscape:zoom="9.8333333"
     inkscape:cx="12"
     inkscape:cy="12"
     inkscape:window-x="0"
     inkscape:window-y="0"
     inkscape:window-maximized="0"
     inkscape:current-layer="svg10" />
  <g
     id="g22"
     transform="matrix(2.5538656,0,0,2.3720548,-2.6463255,21.516853)">
    <path
       id="path2"
       d="m 12.89,1.45 8,4 A 2,2 0 0 1 22,7.24 v 9.53 a 2,2 0 0 1 -1.11,1.79 l -8,4 a 2,2 0 0 1 -1.79,0 l -8,-4 A 2,2 0 0 1 2,16.76 V 7.24 A 2,2 0 0 1 3.11,5.45 l 8,-4 a 2,2 0 0 1 1.78,0 z"
       inkscape:connector-curvature="0" />
    <polyline
       id="polyline4"
       points="2.32 6.16 12 11 21.68 6.16" />
    <line
       id="line6"
       y2="11"
       x2="12"
       y1="22.76"
       x1="12" />
    <line
       id="line8"
       y2="8.5"
       x2="17"
       y1="3.5"
       x1="7" />
  </g>
</svg>
